<svg xmlns="http://www.w3.org/2000/svg" width="1400" height="260" viewBox="0 0 1400 260" role="img" aria-labelledby="title desc">
<title id="title">Copy OSD Logs to File Share workflow</title>
<desc id="desc">Task Sequence flow diagram</desc>
<defs><filter id="shadow" x="-15%" y="-15%" width="130%" height="130%"><feDropShadow dx="0" dy="8" stdDeviation="8" flood-color="#0f172a" flood-opacity=".15"/></filter></defs>
<rect width="1400" height="260" rx="24" fill="#f8fafc"/>
<text x="40" y="50" font-family="Segoe UI, Inter, Arial" font-size="30" font-weight="700" fill="#0f172a">Copy OSD Logs to File Share workflow</text>
<rect x="40" y="96" width="160" height="74" rx="18" fill="#fff" stroke="#0891B2" stroke-width="3" filter="url(#shadow)"/><circle cx="65" cy="121" r="15" fill="#0891B2"/><text x="65" y="127" text-anchor="middle" font-family="Segoe UI, Arial" font-size="16" font-weight="700" fill="#fff">1</text><text x="120.0" y="140" text-anchor="middle" font-family="Segoe UI, Arial" font-size="16" font-weight="600" fill="#0f172a">Set log variables</text><path d="M204 133h16" stroke="#4F46E5" stroke-width="4" stroke-linecap="round"/><path d="M217 126l8 7-8 7" fill="none" stroke="#4F46E5" stroke-width="4" stroke-linecap="round" stroke-linejoin="round"/><rect x="224" y="96" width="160" height="74" rx="18" fill="#fff" stroke="#0891B2" stroke-width="3" filter="url(#shadow)"/><circle cx="249" cy="121" r="15" fill="#0891B2"/><text x="249" y="127" text-anchor="middle" font-family="Segoe UI, Arial" font-size="16" font-weight="700" fill="#fff">2</text><text x="304.0" y="140" text-anchor="middle" font-family="Segoe UI, Arial" font-size="16" font-weight="600" fill="#0f172a">Collect standard logs</text><path d="M388 133h16" stroke="#4F46E5" stroke-width="4" stroke-linecap="round"/><path d="M401 126l8 7-8 7" fill="none" stroke="#4F46E5" stroke-width="4" stroke-linecap="round" stroke-linejoin="round"/><rect x="408" y="96" width="160" height="74" rx="18" fill="#fff" stroke="#0891B2" stroke-width="3" filter="url(#shadow)"/><circle cx="433" cy="121" r="15" fill="#0891B2"/><text x="433" y="127" text-anchor="middle" font-family="Segoe UI, Arial" font-size="16" font-weight="700" fill="#fff">3</text><text x="488.0" y="140" text-anchor="middle" font-family="Segoe UI, Arial" font-size="16" font-weight="600" fill="#0f172a">Write Manifest.json</text><path d="M572 133h16" stroke="#4F46E5" stroke-width="4" stroke-linecap="round"/><path d="M585 126l8 7-8 7" fill="none" stroke="#4F46E5" stroke-width="4" stroke-linecap="round" stroke-linejoin="round"/><rect x="592" y="96" width="160" height="74" rx="18" fill="#fff" stroke="#0891B2" stroke-width="3" filter="url(#shadow)"/><circle cx="617" cy="121" r="15" fill="#0891B2"/><text x="617" y="127" text-anchor="middle" font-family="Segoe UI, Arial" font-size="16" font-weight="700" fill="#fff">4</text><text x="672.0" y="140" text-anchor="middle" font-family="Segoe UI, Arial" font-size="16" font-weight="600" fill="#0f172a">Create local ZIP</text><path d="M756 133h16" stroke="#4F46E5" stroke-width="4" stroke-linecap="round"/><path d="M769 126l8 7-8 7" fill="none" stroke="#4F46E5" stroke-width="4" stroke-linecap="round" stroke-linejoin="round"/><rect x="776" y="96" width="160" height="74" rx="18" fill="#fff" stroke="#0891B2" stroke-width="3" filter="url(#shadow)"/><circle cx="801" cy="121" r="15" fill="#0891B2"/><text x="801" y="127" text-anchor="middle" font-family="Segoe UI, Arial" font-size="16" font-weight="700" fill="#fff">5</text><text x="856.0" y="140" text-anchor="middle" font-family="Segoe UI, Arial" font-size="16" font-weight="600" fill="#0f172a">TCP 445 preflight</text><path d="M940 133h16" stroke="#4F46E5" stroke-width="4" stroke-linecap="round"/><path d="M953 126l8 7-8 7" fill="none" stroke="#4F46E5" stroke-width="4" stroke-linecap="round" stroke-linejoin="round"/><rect x="960" y="96" width="160" height="74" rx="18" fill="#fff" stroke="#0891B2" stroke-width="3" filter="url(#shadow)"/><circle cx="985" cy="121" r="15" fill="#0891B2"/><text x="985" y="127" text-anchor="middle" font-family="Segoe UI, Arial" font-size="16" font-weight="700" fill="#fff">6</text><text x="1040.0" y="140" text-anchor="middle" font-family="Segoe UI, Arial" font-size="16" font-weight="600" fill="#0f172a">Upload + verify</text><path d="M1124 133h16" stroke="#4F46E5" stroke-width="4" stroke-linecap="round"/><path d="M1137 126l8 7-8 7" fill="none" stroke="#4F46E5" stroke-width="4" stroke-linecap="round" stroke-linejoin="round"/><rect x="1144" y="96" width="160" height="74" rx="18" fill="#fff" stroke="#0891B2" stroke-width="3" filter="url(#shadow)"/><circle cx="1169" cy="121" r="15" fill="#0891B2"/><text x="1169" y="127" text-anchor="middle" font-family="Segoe UI, Arial" font-size="16" font-weight="700" fill="#fff">7</text><text x="1224.0" y="140" text-anchor="middle" font-family="Segoe UI, Arial" font-size="16" font-weight="600" fill="#0f172a">Clear variables</text>
</svg>